<svg id="Capa_1" data-name="Capa 1" xmlns="http://www.w3.org/2000/svg" viewBox="0 0 30 30"><defs><style>.cls-1{fill:#ed1e79;}</style></defs><path class="cls-1" d="M16.9,1.47a3.79,3.79,0,0,1,.18-.42A1.75,1.75,0,0,1,18,.1a1.59,1.59,0,0,1,.72,0,4.2,4.2,0,0,1,2.32,1c1.5,1.28,1.61,3.41,1.36,5.22a8.4,8.4,0,0,1-1,2.3c-.12.25-1.19,1.74-.47,1.73l3.42-.09a11.64,11.64,0,0,1,3.23.09,3.38,3.38,0,0,1,2.27,2.47,3.94,3.94,0,0,1-.39,3c-.19.3-.65.69-.52,1.1a6.21,6.21,0,0,1-.11,3.39,2.31,2.31,0,0,1-.1.28c-.21.39-.47.62-.36,1.1a4.84,4.84,0,0,1,0,2,6.52,6.52,0,0,1-.78,1.74,1.93,1.93,0,0,0-.15.75A3.32,3.32,0,0,1,27,28.34a4.64,4.64,0,0,1-2.86,1.33A17.33,17.33,0,0,1,15.23,29c-1.3-.46-3.57-2-4.86-2.55-1.11-.44-1.47-.72-1.47-2v-10a2.05,2.05,0,0,1,1-1.75,16.32,16.32,0,0,0,2.67-2.45,14.44,14.44,0,0,0,4.09-6.43C16.87,3.05,16.59,2.23,16.9,1.47Z"/><path class="cls-1" d="M3.81,11.67A3.82,3.82,0,0,0,0,15.48v8.1a3.82,3.82,0,1,0,7.63,0v-8.1A3.82,3.82,0,0,0,3.81,11.67Zm0,13.51a1.62,1.62,0,1,1,1.63-1.62A1.63,1.63,0,0,1,3.81,25.18Z"/></svg>