<svg id="Capa_1" data-name="Capa 1" xmlns="http://www.w3.org/2000/svg" viewBox="0 0 30 30"><defs><style>.cls-1{fill:#fff;}</style></defs><path class="cls-1" d="M16.9,1.47a3,3,0,0,1,.18-.41A1.77,1.77,0,0,1,18,.1a1.75,1.75,0,0,1,.72,0,4.27,4.27,0,0,1,2.32,1c1.5,1.28,1.61,3.41,1.36,5.22a8.4,8.4,0,0,1-1,2.3c-.12.25-1.19,1.74-.47,1.73,1.14,0,2.28-.05,3.42-.08a11.64,11.64,0,0,1,3.23.08,3.38,3.38,0,0,1,2.27,2.47,3.94,3.94,0,0,1-.39,3c-.19.31-.65.7-.52,1.1a6.2,6.2,0,0,1-.11,3.39,2.31,2.31,0,0,1-.1.28c-.21.39-.47.62-.36,1.1a4.84,4.84,0,0,1,0,2,6.73,6.73,0,0,1-.78,1.75,1.88,1.88,0,0,0-.15.74A3.29,3.29,0,0,1,27,28.34a4.53,4.53,0,0,1-2.86,1.33A17.22,17.22,0,0,1,15.23,29c-1.3-.45-3.57-2-4.86-2.55-1.11-.44-1.47-.71-1.47-2v-10a2.06,2.06,0,0,1,1-1.75,15.89,15.89,0,0,0,2.67-2.45,14.46,14.46,0,0,0,4.09-6.42C16.87,3.05,16.59,2.23,16.9,1.47Z"/><path class="cls-1" d="M3.81,11.67A3.83,3.83,0,0,0,0,15.48v8.11a3.82,3.82,0,0,0,7.63,0V15.48A3.83,3.83,0,0,0,3.81,11.67Zm0,13.51a1.62,1.62,0,1,1,1.63-1.62A1.62,1.62,0,0,1,3.81,25.18Z"/></svg>