<svg id="Capa_1" data-name="Capa 1" xmlns="http://www.w3.org/2000/svg" viewBox="0 0 30 30"><defs><style>.cls-1{fill:#fff;}</style></defs><line class="cls-1" x1="26.17" y1="24.28" x2="3.7" y2="24.51"/><path class="cls-1" d="M28.26,22.28a2.24,2.24,0,0,1-2,2.07H3.78a2.24,2.24,0,0,1-2-2.07c0-.92.8-1.59,1.32-2.25a18.05,18.05,0,0,0,1.13-1.62,8.31,8.31,0,0,0,1.24-3.7c.17-2.28.2-4.43,1.17-6.56a8.2,8.2,0,0,1,5.33-4.71,2,2,0,0,0,.82-.32,1.35,1.35,0,0,0,.33-.46c.27-.67.14-1.61.7-2.14a1.69,1.69,0,0,1,2.44,0c.56.53.43,1.47.7,2.14a1.35,1.35,0,0,0,.33.46,2,2,0,0,0,.82.32A8.2,8.2,0,0,1,23.4,8.15c1,2.13,1,4.28,1.17,6.56a8.31,8.31,0,0,0,1.24,3.7A18.05,18.05,0,0,0,26.94,20C27.46,20.69,28.26,21.36,28.26,22.28Z"/><path class="cls-1" d="M19.09,26.48A4.9,4.9,0,0,1,17.58,29a4.87,4.87,0,0,1-1.82.94A2.18,2.18,0,0,1,15,30a2.18,2.18,0,0,1-.76-.07A4.87,4.87,0,0,1,12.42,29a4.9,4.9,0,0,1-1.51-2.5c-.07-.28.32-.4.32-.4h7.54S19.16,26.2,19.09,26.48Z"/></svg>