<svg id="Capa_1" data-name="Capa 1" xmlns="http://www.w3.org/2000/svg" viewBox="0 0 454.2 502.04"><defs><style>.cls-1{fill:none;}.cls-2{fill:#ed1e79;}</style></defs><path class="cls-1" d="M336.62,392.42a69,69,0,1,1,69-69A69,69,0,0,1,336.62,392.42Z"/><path class="cls-2" d="M347.41,90.19h-38.7V50a50,50,0,0,0-50-50H167.56a50,50,0,0,0-50,50V90.19H77.89A77.9,77.9,0,0,0,0,168.09V333.43a77.9,77.9,0,0,0,77.89,77.9H183.76l21.16-21.16A147.62,147.62,0,0,1,425.31,205.48V168.09A77.9,77.9,0,0,0,347.41,90.19Zm-97.22,0H176.07V61.05a11,11,0,0,1,11-11h52.12a11,11,0,0,1,11,11Z"/><path class="cls-2" d="M426,247.06l-.68-.78A117.57,117.57,0,0,0,243,394.55l-16.78,16.78L171,466.56a20.79,20.79,0,0,0,29.4,29.4l73.24-73.25A117.57,117.57,0,0,0,426,247.06Zm-89.37,7.43a69,69,0,1,1-69,69A69,69,0,0,1,336.62,254.49Z"/><path class="cls-1" d="M405.58,323.45a69,69,0,1,1-69-69A69,69,0,0,1,405.58,323.45Z"/><path class="cls-1" d="M426,206v41.07l-.68-.78A117.57,117.57,0,0,0,243,394.55l-16.78,16.78H183.76l21.16-21.16A147.62,147.62,0,0,1,425.31,205.48Z"/></svg>