<?xml version="1.0" encoding="utf-8"?>
<!-- Generator: Adobe Illustrator 25.3.1, SVG Export Plug-In . SVG Version: 6.00 Build 0)  -->
<svg version="1.1" id="Capa_1" xmlns="http://www.w3.org/2000/svg" xmlns:xlink="http://www.w3.org/1999/xlink" x="0px" y="0px"
	 viewBox="0 0 454.2 502" style="enable-background:new 0 0 454.2 502;" xml:space="preserve">
<style type="text/css">
	.st0{fill:#FFFFFF;}
	.st1{fill:none;}
</style>
<path class="st0" d="M385.4,372.2c1.2-1.2,2.3-2.4,3.4-3.6C387.7,369.9,386.6,371.1,385.4,372.2
	C385.4,372.2,385.4,372.2,385.4,372.2z"/>
<path class="st0" d="M388.8,368.6c10.5-12.1,16.8-27.9,16.8-45.1c0-17.8-6.7-34-17.7-46.2c-0.1-0.1-0.2-0.2-0.3-0.4
	c-0.7-0.8-1.4-1.5-2.1-2.2l-2.4-2.3c-0.8-0.7-1.6-1.4-2.4-2.1l-6.7-4.9c-0.9-0.6-1.9-1.2-2.8-1.7c0,0,0,0-0.1,0
	c-10.1-5.8-21.8-9.1-34.3-9.1h0c-38.1,0-69,30.9-69,69c0,1.8,0.1,3.6,0.2,5.3c-0.1-1.8-0.2-3.6-0.2-5.4c0-19.1,7.7-36.3,20.2-48.8
	c4.7-4.7,10-8.7,15.9-11.8c9.8-5.3,21-8.4,32.9-8.4c29.3,0,54.3,18.3,64.3,44.1c0,0,0,0.1,0.1,0.1c0.2,0.6,0.5,1.3,0.7,2
	c0.1,0.2,0.1,0.4,0.2,0.6c0.2,0.6,0.4,1.1,0.6,1.7c0.1,0.3,0.2,0.7,0.3,1c0.1,0.5,0.3,1,0.4,1.5c0.2,0.8,0.4,1.7,0.6,2.5
	c0.8,3.3,1.3,6.7,1.6,10.2c0.1,1.8,0.2,3.5,0.2,5.3C405.6,340.7,399.3,356.5,388.8,368.6z"/>
<path class="st0" d="M347.4,90.2h-38.7V50c0-27.6-22.4-50-50-50h-91.1c-27.6,0-50,22.4-50,50v40.2H77.9c-43,0-77.9,34.9-77.9,77.9
	v165.3c0,43,34.9,77.9,77.9,77.9h105.9l21.2-21.2c-36.8-72.7-7.7-161.6,65-198.4c50.2-25.4,110.4-20.1,155.4,13.7v-37.4
	C425.3,125.1,390.4,90.2,347.4,90.2z M250.2,90.2h-74.1V61c0-6.1,4.9-11,11-11h52.1c6.1,0,11,4.9,11,11V90.2z"/>
<path class="st0" d="M426,247.1l-0.7-0.8c-42.7-48.9-117-54-165.9-11.3c-46.5,40.6-53.7,110.3-16.4,159.6l-16.8,16.8L171,466.6
	c-8,8.2-7.9,21.4,0.3,29.4c8.1,7.9,21,7.9,29.1,0l73.2-73.2c54.8,34.8,127.5,18.5,162.2-36.3C463.5,342.8,459.5,286.3,426,247.1z
	 M336.6,392.5c-13.7,0-26.5-4-37.2-10.9c-0.5-0.3-0.9-0.6-1.4-0.9c-1.4-0.9-2.7-1.9-4-2.9c-2.2-1.7-4.2-3.5-6.2-5.5
	c-0.7-0.7-1.3-1.4-2-2c-0.2-0.3-0.5-0.5-0.7-0.8c-0.4-0.5-0.8-0.9-1.2-1.4c-0.4-0.5-0.8-1-1.2-1.4c-0.3-0.4-0.7-0.9-1-1.3
	c-0.3-0.5-0.7-0.9-1-1.4c-0.2-0.2-0.3-0.5-0.5-0.7c-4.7-6.7-8.3-14.3-10.4-22.5c-0.1-0.5-0.3-1.1-0.4-1.7c-0.8-3.3-1.3-6.7-1.6-10.2
	c-0.1-1.8-0.2-3.5-0.2-5.3c0-38.1,30.9-69,69-69h0c12.5,0,24.2,3.3,34.3,9.1c0,0,0,0,0.1,0c1,0.6,1.9,1.1,2.8,1.7l6.7,4.9
	c0.8,0.7,1.6,1.4,2.4,2.1l2.4,2.3c6.7,6.7,12.1,14.8,15.6,23.8c0,0,0,0.1,0.1,0.1c0.2,0.6,0.5,1.3,0.7,2c0.1,0.2,0.1,0.4,0.2,0.6
	c0.2,0.6,0.4,1.1,0.6,1.7c0.1,0.3,0.2,0.7,0.3,1c0.1,0.5,0.3,1,0.4,1.5c0.2,0.8,0.4,1.7,0.6,2.5c0.8,3.3,1.3,6.7,1.6,10.2
	c0.1,1.8,0.2,3.6,0.2,5.4C405.6,361.6,374.7,392.5,336.6,392.5z"/>
<path class="st1" d="M405.6,323.4c0,17.2-6.3,33-16.8,45.1c0,0,0,0,0,0c-1.1,1.2-2.2,2.5-3.4,3.6c-4.7,4.7-10,8.7-15.9,11.8
	c-9.8,5.3-21,8.3-32.9,8.3c-32.2,0-59.2-22-66.8-51.8c-0.1-0.6-0.3-1.1-0.4-1.7c-0.8-3.3-1.3-6.7-1.6-10.2c-0.1-1.8-0.2-3.5-0.2-5.3
	c0-38.1,30.9-69,69-69h0c12.5,0,24.2,3.3,34.3,9.1c0,0,0,0,0.1,0c1,0.6,1.9,1.1,2.8,1.7l6.7,4.9c0.8,0.7,1.6,1.4,2.4,2.1l2.4,2.3
	C397.9,287.1,405.6,304.4,405.6,323.4z"/>
<path class="st1" d="M267.6,323.5c0,1.8,0.1,3.6,0.2,5.3c0.3,3.5,0.8,6.9,1.6,10.2c0.1,0.6,0.3,1.1,0.4,1.7c0.2,0.9,0.5,1.8,0.8,2.7
	c0,0.1,0.1,0.2,0.1,0.3c0.3,0.8,0.5,1.7,0.8,2.5c0,0,0,0.1,0,0.1c9.4,26.9,35,46.2,65.1,46.2c11.9,0,23.1-3,32.9-8.3
	c-9.8,5.3-21,8.4-32.9,8.4c-13.7,0-26.5-4-37.2-10.9c-0.5-0.3-0.9-0.6-1.4-0.9c-1.4-0.9-2.7-1.9-4-2.9c-2.2-1.7-4.2-3.5-6.2-5.5
	c-0.7-0.7-1.3-1.4-2-2c-0.2-0.3-0.5-0.5-0.7-0.8c-0.4-0.5-0.8-0.9-1.2-1.4c-0.4-0.5-0.8-1-1.2-1.4c-0.3-0.4-0.7-0.9-1-1.3
	c-0.3-0.5-0.7-0.9-1-1.4c-0.2-0.2-0.3-0.5-0.5-0.7C272.3,352,267.6,338.3,267.6,323.5c0-19.1,7.7-36.4,20.2-48.9
	c4.7-4.7,10-8.7,15.9-11.8c9.8-5.3,21-8.3,32.9-8.3c12.5,0,24.2,3.3,34.3,9.1c-10.1-5.8-21.8-9.1-34.3-9.1h0
	C298.5,254.5,267.6,285.4,267.6,323.5z"/>
<path class="st1" d="M373.8,265.4c-0.9-0.6-1.9-1.2-2.8-1.7C371.9,264.2,372.9,264.7,373.8,265.4z"/>
</svg>
